<mxfile host="app.diagrams.net" agent="Mozilla/5.0 (Windows NT 10.0; Win64; x64) AppleWebKit/537.36 (KHTML, like Gecko) Chrome/135.0.0.0 Safari/537.36" version="26.2.14">
  <diagram id="C5RBs43oDa-KdzZeNtuy" name="Page-1">
    <mxGraphModel dx="2066" dy="2278" grid="1" gridSize="10" guides="1" tooltips="1" connect="1" arrows="1" fold="1" page="1" pageScale="1" pageWidth="827" pageHeight="1169" math="0" shadow="0">
      <root>
        <mxCell id="WIyWlLk6GJQsqaUBKTNV-0" />
        <mxCell id="WIyWlLk6GJQsqaUBKTNV-1" parent="WIyWlLk6GJQsqaUBKTNV-0" />
        <mxCell id="LFCNQOA-7yHvIdZD4JI9-0" value="FarmDatabase" style="swimlane;fontStyle=1;align=center;verticalAlign=top;childLayout=stackLayout;horizontal=1;startSize=26;horizontalStack=0;resizeParent=1;resizeParentMax=0;resizeLast=0;collapsible=1;marginBottom=0;whiteSpace=wrap;html=1;" vertex="1" parent="WIyWlLk6GJQsqaUBKTNV-1">
          <mxGeometry x="480" y="-280" width="310" height="170" as="geometry" />
        </mxCell>
        <mxCell id="LFCNQOA-7yHvIdZD4JI9-1" value="-instance: FarmDatabase (static)&lt;div&gt;-cattleLocationData: Map&amp;lt;String, Integer&amp;gt;&lt;/div&gt;&lt;div&gt;&lt;br&gt;&lt;/div&gt;" style="text;strokeColor=none;fillColor=none;align=left;verticalAlign=top;spacingLeft=4;spacingRight=4;overflow=hidden;rotatable=0;points=[[0,0.5],[1,0.5]];portConstraint=eastwest;whiteSpace=wrap;html=1;" vertex="1" parent="LFCNQOA-7yHvIdZD4JI9-0">
          <mxGeometry y="26" width="310" height="54" as="geometry" />
        </mxCell>
        <mxCell id="LFCNQOA-7yHvIdZD4JI9-2" value="" style="line;strokeWidth=1;fillColor=none;align=left;verticalAlign=middle;spacingTop=-1;spacingLeft=3;spacingRight=3;rotatable=0;labelPosition=right;points=[];portConstraint=eastwest;strokeColor=inherit;" vertex="1" parent="LFCNQOA-7yHvIdZD4JI9-0">
          <mxGeometry y="80" width="310" height="8" as="geometry" />
        </mxCell>
        <mxCell id="LFCNQOA-7yHvIdZD4JI9-3" value="-FarmDatabase()&lt;div&gt;+getInstance(): FarmDatabase&lt;/div&gt;&lt;div&gt;+updateLocation(cattleId: String, location: Integer): void&lt;/div&gt;&lt;div&gt;+getLocation(cattleId: String): Integer&lt;/div&gt;" style="text;strokeColor=none;fillColor=none;align=left;verticalAlign=top;spacingLeft=4;spacingRight=4;overflow=hidden;rotatable=0;points=[[0,0.5],[1,0.5]];portConstraint=eastwest;whiteSpace=wrap;html=1;" vertex="1" parent="LFCNQOA-7yHvIdZD4JI9-0">
          <mxGeometry y="88" width="310" height="82" as="geometry" />
        </mxCell>
        <mxCell id="LFCNQOA-7yHvIdZD4JI9-32" style="edgeStyle=orthogonalEdgeStyle;rounded=0;orthogonalLoop=1;jettySize=auto;html=1;endArrow=block;endFill=0;" edge="1" parent="WIyWlLk6GJQsqaUBKTNV-1" source="LFCNQOA-7yHvIdZD4JI9-14">
          <mxGeometry relative="1" as="geometry">
            <mxPoint x="575" y="140" as="targetPoint" />
          </mxGeometry>
        </mxCell>
        <mxCell id="LFCNQOA-7yHvIdZD4JI9-14" value="Farmer&lt;div&gt;&lt;br&gt;&lt;/div&gt;" style="swimlane;fontStyle=1;align=center;verticalAlign=top;childLayout=stackLayout;horizontal=1;startSize=26;horizontalStack=0;resizeParent=1;resizeParentMax=0;resizeLast=0;collapsible=1;marginBottom=0;whiteSpace=wrap;html=1;" vertex="1" parent="WIyWlLk6GJQsqaUBKTNV-1">
          <mxGeometry x="710" y="240" width="210" height="100" as="geometry" />
        </mxCell>
        <mxCell id="LFCNQOA-7yHvIdZD4JI9-15" value="-name: String" style="text;strokeColor=none;fillColor=none;align=left;verticalAlign=top;spacingLeft=4;spacingRight=4;overflow=hidden;rotatable=0;points=[[0,0.5],[1,0.5]];portConstraint=eastwest;whiteSpace=wrap;html=1;" vertex="1" parent="LFCNQOA-7yHvIdZD4JI9-14">
          <mxGeometry y="26" width="210" height="26" as="geometry" />
        </mxCell>
        <mxCell id="LFCNQOA-7yHvIdZD4JI9-16" value="" style="line;strokeWidth=1;fillColor=none;align=left;verticalAlign=middle;spacingTop=-1;spacingLeft=3;spacingRight=3;rotatable=0;labelPosition=right;points=[];portConstraint=eastwest;strokeColor=inherit;" vertex="1" parent="LFCNQOA-7yHvIdZD4JI9-14">
          <mxGeometry y="52" width="210" height="8" as="geometry" />
        </mxCell>
        <mxCell id="LFCNQOA-7yHvIdZD4JI9-17" value="+update(cattleId: String, location: Integer): void" style="text;strokeColor=none;fillColor=none;align=left;verticalAlign=top;spacingLeft=4;spacingRight=4;overflow=hidden;rotatable=0;points=[[0,0.5],[1,0.5]];portConstraint=eastwest;whiteSpace=wrap;html=1;" vertex="1" parent="LFCNQOA-7yHvIdZD4JI9-14">
          <mxGeometry y="60" width="210" height="40" as="geometry" />
        </mxCell>
        <mxCell id="LFCNQOA-7yHvIdZD4JI9-31" style="edgeStyle=orthogonalEdgeStyle;rounded=0;orthogonalLoop=1;jettySize=auto;html=1;entryX=0.75;entryY=1;entryDx=0;entryDy=0;endArrow=block;endFill=0;" edge="1" parent="WIyWlLk6GJQsqaUBKTNV-1" source="LFCNQOA-7yHvIdZD4JI9-26" target="LFCNQOA-7yHvIdZD4JI9-33">
          <mxGeometry relative="1" as="geometry">
            <mxPoint x="382.5" y="140" as="targetPoint" />
          </mxGeometry>
        </mxCell>
        <mxCell id="LFCNQOA-7yHvIdZD4JI9-26" value="&lt;div&gt;LocationTracker&amp;nbsp;&lt;/div&gt;" style="swimlane;fontStyle=1;align=center;verticalAlign=top;childLayout=stackLayout;horizontal=1;startSize=26;horizontalStack=0;resizeParent=1;resizeParentMax=0;resizeLast=0;collapsible=1;marginBottom=0;whiteSpace=wrap;html=1;" vertex="1" parent="WIyWlLk6GJQsqaUBKTNV-1">
          <mxGeometry x="310" y="310" width="210" height="260" as="geometry">
            <mxRectangle x="50" y="470" width="130" height="30" as="alternateBounds" />
          </mxGeometry>
        </mxCell>
        <mxCell id="LFCNQOA-7yHvIdZD4JI9-27" value="-observers: List&amp;lt;Observer&amp;gt;" style="text;strokeColor=none;fillColor=none;align=left;verticalAlign=top;spacingLeft=4;spacingRight=4;overflow=hidden;rotatable=0;points=[[0,0.5],[1,0.5]];portConstraint=eastwest;whiteSpace=wrap;html=1;" vertex="1" parent="LFCNQOA-7yHvIdZD4JI9-26">
          <mxGeometry y="26" width="210" height="26" as="geometry" />
        </mxCell>
        <mxCell id="LFCNQOA-7yHvIdZD4JI9-28" value="" style="line;strokeWidth=1;fillColor=none;align=left;verticalAlign=middle;spacingTop=-1;spacingLeft=3;spacingRight=3;rotatable=0;labelPosition=right;points=[];portConstraint=eastwest;strokeColor=inherit;" vertex="1" parent="LFCNQOA-7yHvIdZD4JI9-26">
          <mxGeometry y="52" width="210" height="8" as="geometry" />
        </mxCell>
        <mxCell id="LFCNQOA-7yHvIdZD4JI9-29" value="+registerObserver(observer: Observer): void&lt;div&gt;+removeObserver(observer: Observer): void&lt;/div&gt;&lt;div&gt;+notifyObservers(cattleId: String, location: Integer): void&lt;/div&gt;&lt;div&gt;+checkLocation(cattleId: String, location: Integer): void&lt;br&gt;&lt;div&gt;&lt;br&gt;&lt;/div&gt;&lt;/div&gt;" style="text;strokeColor=none;fillColor=none;align=left;verticalAlign=top;spacingLeft=4;spacingRight=4;overflow=hidden;rotatable=0;points=[[0,0.5],[1,0.5]];portConstraint=eastwest;whiteSpace=wrap;html=1;" vertex="1" parent="LFCNQOA-7yHvIdZD4JI9-26">
          <mxGeometry y="60" width="210" height="200" as="geometry" />
        </mxCell>
        <mxCell id="LFCNQOA-7yHvIdZD4JI9-30" style="edgeStyle=orthogonalEdgeStyle;rounded=0;orthogonalLoop=1;jettySize=auto;html=1;entryX=0.99;entryY=0.846;entryDx=0;entryDy=0;entryPerimeter=0;exitX=0.495;exitY=1.039;exitDx=0;exitDy=0;exitPerimeter=0;" edge="1" parent="WIyWlLk6GJQsqaUBKTNV-1" source="LFCNQOA-7yHvIdZD4JI9-17" target="LFCNQOA-7yHvIdZD4JI9-27">
          <mxGeometry relative="1" as="geometry">
            <Array as="points">
              <mxPoint x="815" y="342" />
              <mxPoint x="815" y="360" />
              <mxPoint x="615" y="360" />
              <mxPoint x="615" y="358" />
            </Array>
          </mxGeometry>
        </mxCell>
        <mxCell id="LFCNQOA-7yHvIdZD4JI9-33" value="&lt;p style=&quot;margin:0px;margin-top:4px;text-align:center;&quot;&gt;&lt;i&gt;&amp;lt;&amp;lt;Interface&amp;gt;&amp;gt;&lt;/i&gt;&lt;br&gt;&lt;b&gt;Subject&lt;/b&gt;&lt;/p&gt;&lt;p style=&quot;margin:0px;margin-left:4px;&quot;&gt;&lt;br&gt;&lt;/p&gt;&lt;hr size=&quot;1&quot; style=&quot;border-style:solid;&quot;&gt;&lt;p style=&quot;margin:0px;margin-left:4px;&quot;&gt;+registerObserver(observer: Observer): void&lt;br&gt;+removeObserver(observer: Observer): void&lt;/p&gt;&lt;p style=&quot;margin:0px;margin-left:4px;&quot;&gt;+notifyObservers(cattleId: String, location: Integer): void&lt;/p&gt;" style="verticalAlign=top;align=left;overflow=fill;html=1;whiteSpace=wrap;" vertex="1" parent="WIyWlLk6GJQsqaUBKTNV-1">
          <mxGeometry x="220" y="-20" width="170" height="160" as="geometry" />
        </mxCell>
        <mxCell id="LFCNQOA-7yHvIdZD4JI9-36" style="edgeStyle=orthogonalEdgeStyle;rounded=0;orthogonalLoop=1;jettySize=auto;html=1;entryX=1;entryY=0.5;entryDx=0;entryDy=0;endArrow=diamond;endFill=0;fontSize=11;" edge="1" parent="WIyWlLk6GJQsqaUBKTNV-1" source="LFCNQOA-7yHvIdZD4JI9-34" target="LFCNQOA-7yHvIdZD4JI9-33">
          <mxGeometry relative="1" as="geometry" />
        </mxCell>
        <mxCell id="LFCNQOA-7yHvIdZD4JI9-34" value="&lt;p style=&quot;margin:0px;margin-top:4px;text-align:center;&quot;&gt;&lt;i&gt;&amp;lt;&amp;lt;Interface&amp;gt;&amp;gt;&lt;/i&gt;&lt;br&gt;&lt;b&gt;Observer&lt;/b&gt;&lt;/p&gt;&lt;p style=&quot;margin:0px;margin-left:4px;&quot;&gt;&lt;br&gt;&lt;/p&gt;&lt;hr size=&quot;1&quot; style=&quot;border-style:solid;&quot;&gt;&lt;p style=&quot;margin:0px;margin-left:4px;&quot;&gt;+update(cattleId: String, location: Integer): void&lt;/p&gt;" style="verticalAlign=top;align=left;overflow=fill;html=1;whiteSpace=wrap;" vertex="1" parent="WIyWlLk6GJQsqaUBKTNV-1">
          <mxGeometry x="530" y="-20" width="170" height="160" as="geometry" />
        </mxCell>
        <mxCell id="LFCNQOA-7yHvIdZD4JI9-37" value="&lt;p style=&quot;margin:0px;margin-top:4px;text-align:center;&quot;&gt;&lt;i&gt;&amp;lt;&amp;lt;Interface&amp;gt;&amp;gt;&lt;/i&gt;&lt;/p&gt;&lt;p style=&quot;margin:0px;margin-top:4px;text-align:center;&quot;&gt;&lt;i&gt;&lt;b&gt;Command&lt;/b&gt;&lt;/i&gt;&lt;/p&gt;&lt;hr size=&quot;1&quot; style=&quot;border-style:solid;&quot;&gt;&lt;p style=&quot;margin:0px;margin-left:4px;&quot;&gt;+execute(cattle: Cattle): void&lt;/p&gt;" style="verticalAlign=top;align=left;overflow=fill;html=1;whiteSpace=wrap;" vertex="1" parent="WIyWlLk6GJQsqaUBKTNV-1">
          <mxGeometry x="414" y="690" width="190" height="70" as="geometry" />
        </mxCell>
        <mxCell id="LFCNQOA-7yHvIdZD4JI9-53" style="edgeStyle=orthogonalEdgeStyle;rounded=0;orthogonalLoop=1;jettySize=auto;html=1;entryX=0.25;entryY=1;entryDx=0;entryDy=0;endArrow=block;endFill=0;" edge="1" parent="WIyWlLk6GJQsqaUBKTNV-1" source="LFCNQOA-7yHvIdZD4JI9-38" target="LFCNQOA-7yHvIdZD4JI9-37">
          <mxGeometry relative="1" as="geometry">
            <Array as="points">
              <mxPoint x="285" y="820" />
              <mxPoint x="462" y="820" />
            </Array>
          </mxGeometry>
        </mxCell>
        <mxCell id="LFCNQOA-7yHvIdZD4JI9-38" value="VaccinationCommand " style="swimlane;fontStyle=0;childLayout=stackLayout;horizontal=1;startSize=26;fillColor=none;horizontalStack=0;resizeParent=1;resizeParentMax=0;resizeLast=0;collapsible=1;marginBottom=0;whiteSpace=wrap;html=1;" vertex="1" parent="WIyWlLk6GJQsqaUBKTNV-1">
          <mxGeometry x="190" y="870" width="190" height="60" as="geometry" />
        </mxCell>
        <mxCell id="LFCNQOA-7yHvIdZD4JI9-39" value="+execute(cattle: Cattle): void" style="text;strokeColor=none;fillColor=none;align=left;verticalAlign=top;spacingLeft=4;spacingRight=4;overflow=hidden;rotatable=0;points=[[0,0.5],[1,0.5]];portConstraint=eastwest;whiteSpace=wrap;html=1;" vertex="1" parent="LFCNQOA-7yHvIdZD4JI9-38">
          <mxGeometry y="26" width="190" height="34" as="geometry" />
        </mxCell>
        <mxCell id="LFCNQOA-7yHvIdZD4JI9-43" value="InspectionCommand " style="swimlane;fontStyle=0;childLayout=stackLayout;horizontal=1;startSize=26;fillColor=none;horizontalStack=0;resizeParent=1;resizeParentMax=0;resizeLast=0;collapsible=1;marginBottom=0;whiteSpace=wrap;html=1;" vertex="1" parent="WIyWlLk6GJQsqaUBKTNV-1">
          <mxGeometry x="439" y="878" width="170" height="52" as="geometry" />
        </mxCell>
        <mxCell id="LFCNQOA-7yHvIdZD4JI9-44" value="+execute(cattle: Cattle): void" style="text;strokeColor=none;fillColor=none;align=left;verticalAlign=top;spacingLeft=4;spacingRight=4;overflow=hidden;rotatable=0;points=[[0,0.5],[1,0.5]];portConstraint=eastwest;whiteSpace=wrap;html=1;" vertex="1" parent="LFCNQOA-7yHvIdZD4JI9-43">
          <mxGeometry y="26" width="170" height="26" as="geometry" />
        </mxCell>
        <mxCell id="LFCNQOA-7yHvIdZD4JI9-47" value="OperationScheduler " style="swimlane;fontStyle=0;childLayout=stackLayout;horizontal=1;startSize=26;fillColor=none;horizontalStack=0;resizeParent=1;resizeParentMax=0;resizeLast=0;collapsible=1;marginBottom=0;whiteSpace=wrap;html=1;" vertex="1" parent="WIyWlLk6GJQsqaUBKTNV-1">
          <mxGeometry x="40" y="660" width="190" height="70" as="geometry" />
        </mxCell>
        <mxCell id="LFCNQOA-7yHvIdZD4JI9-48" value="+scheduleOperation(command: Command, cattle: Cattle): void" style="text;strokeColor=none;fillColor=none;align=left;verticalAlign=top;spacingLeft=4;spacingRight=4;overflow=hidden;rotatable=0;points=[[0,0.5],[1,0.5]];portConstraint=eastwest;whiteSpace=wrap;html=1;" vertex="1" parent="LFCNQOA-7yHvIdZD4JI9-47">
          <mxGeometry y="26" width="190" height="44" as="geometry" />
        </mxCell>
        <mxCell id="LFCNQOA-7yHvIdZD4JI9-54" style="edgeStyle=orthogonalEdgeStyle;rounded=0;orthogonalLoop=1;jettySize=auto;html=1;entryX=0.574;entryY=1.071;entryDx=0;entryDy=0;entryPerimeter=0;endArrow=block;endFill=0;" edge="1" parent="WIyWlLk6GJQsqaUBKTNV-1" source="LFCNQOA-7yHvIdZD4JI9-43" target="LFCNQOA-7yHvIdZD4JI9-37">
          <mxGeometry relative="1" as="geometry" />
        </mxCell>
        <mxCell id="LFCNQOA-7yHvIdZD4JI9-55" style="edgeStyle=orthogonalEdgeStyle;rounded=0;orthogonalLoop=1;jettySize=auto;html=1;entryX=0;entryY=0.5;entryDx=0;entryDy=0;startArrow=diamond;startFill=0;endArrow=open;endFill=0;" edge="1" parent="WIyWlLk6GJQsqaUBKTNV-1" target="LFCNQOA-7yHvIdZD4JI9-37">
          <mxGeometry relative="1" as="geometry">
            <mxPoint x="230" y="724" as="sourcePoint" />
          </mxGeometry>
        </mxCell>
        <mxCell id="LFCNQOA-7yHvIdZD4JI9-59" value="&lt;p style=&quot;margin:0px;margin-top:4px;text-align:center;&quot;&gt;&lt;i&gt;&amp;lt;&amp;lt;Interface&amp;gt;&amp;gt;&lt;/i&gt;&lt;br&gt;&lt;b&gt;ZigbeeSender&lt;/b&gt;&lt;/p&gt;&lt;hr size=&quot;1&quot; style=&quot;border-style:solid;&quot;&gt;&lt;p style=&quot;margin:0px;margin-left:4px;&quot;&gt;&lt;/p&gt;&lt;p style=&quot;margin:0px;margin-left:4px;&quot;&gt;+sendLocation(cattleId: String, location: String): void&lt;/p&gt;" style="verticalAlign=top;align=left;overflow=fill;html=1;whiteSpace=wrap;" vertex="1" parent="WIyWlLk6GJQsqaUBKTNV-1">
          <mxGeometry x="1120" y="380" width="190" height="85" as="geometry" />
        </mxCell>
        <mxCell id="LFCNQOA-7yHvIdZD4JI9-60" value="&lt;p style=&quot;margin:0px;margin-top:4px;text-align:center;&quot;&gt;BluetoothToZigbeeAdapter&lt;/p&gt;&lt;hr size=&quot;1&quot; style=&quot;border-style:solid;&quot;&gt;&lt;p style=&quot;margin:0px;margin-left:4px;&quot;&gt;-bluetoothDevice: BluetoothDevice&lt;/p&gt;&lt;hr size=&quot;1&quot; style=&quot;border-style:solid;&quot;&gt;&lt;p style=&quot;margin:0px;margin-left:4px;&quot;&gt;+sendLocation(cattleId: String, location: String): void&lt;/p&gt;" style="verticalAlign=top;align=left;overflow=fill;html=1;whiteSpace=wrap;" vertex="1" parent="WIyWlLk6GJQsqaUBKTNV-1">
          <mxGeometry x="1128" y="530" width="225" height="110" as="geometry" />
        </mxCell>
        <mxCell id="LFCNQOA-7yHvIdZD4JI9-61" value="BluetoothDevice" style="swimlane;fontStyle=0;childLayout=stackLayout;horizontal=1;startSize=26;fillColor=none;horizontalStack=0;resizeParent=1;resizeParentMax=0;resizeLast=0;collapsible=1;marginBottom=0;whiteSpace=wrap;html=1;" vertex="1" parent="WIyWlLk6GJQsqaUBKTNV-1">
          <mxGeometry x="1130" y="730" width="180" height="70" as="geometry" />
        </mxCell>
        <mxCell id="LFCNQOA-7yHvIdZD4JI9-62" value="+transmitData(id: String, gpsCoordinates: String): void" style="text;strokeColor=none;fillColor=none;align=left;verticalAlign=top;spacingLeft=4;spacingRight=4;overflow=hidden;rotatable=0;points=[[0,0.5],[1,0.5]];portConstraint=eastwest;whiteSpace=wrap;html=1;" vertex="1" parent="LFCNQOA-7yHvIdZD4JI9-61">
          <mxGeometry y="26" width="180" height="44" as="geometry" />
        </mxCell>
        <mxCell id="LFCNQOA-7yHvIdZD4JI9-65" style="edgeStyle=orthogonalEdgeStyle;rounded=0;orthogonalLoop=1;jettySize=auto;html=1;entryX=0.63;entryY=0.984;entryDx=0;entryDy=0;entryPerimeter=0;dashed=1;endArrow=block;endFill=0;" edge="1" parent="WIyWlLk6GJQsqaUBKTNV-1" source="LFCNQOA-7yHvIdZD4JI9-60" target="LFCNQOA-7yHvIdZD4JI9-59">
          <mxGeometry relative="1" as="geometry" />
        </mxCell>
        <mxCell id="LFCNQOA-7yHvIdZD4JI9-66" style="edgeStyle=orthogonalEdgeStyle;rounded=0;orthogonalLoop=1;jettySize=auto;html=1;entryX=0.591;entryY=0.064;entryDx=0;entryDy=0;entryPerimeter=0;" edge="1" parent="WIyWlLk6GJQsqaUBKTNV-1" source="LFCNQOA-7yHvIdZD4JI9-60" target="LFCNQOA-7yHvIdZD4JI9-61">
          <mxGeometry relative="1" as="geometry" />
        </mxCell>
        <mxCell id="LFCNQOA-7yHvIdZD4JI9-67" value="Cattle" style="swimlane;fontStyle=1;align=center;verticalAlign=top;childLayout=stackLayout;horizontal=1;startSize=26;horizontalStack=0;resizeParent=1;resizeParentMax=0;resizeLast=0;collapsible=1;marginBottom=0;whiteSpace=wrap;html=1;" vertex="1" parent="WIyWlLk6GJQsqaUBKTNV-1">
          <mxGeometry x="370" y="1010" width="160" height="160" as="geometry" />
        </mxCell>
        <mxCell id="LFCNQOA-7yHvIdZD4JI9-68" value="-id: String&lt;div&gt;-distanceToFarm:Integer&lt;/div&gt;&lt;div&gt;-hasVaccinated:boolean&lt;/div&gt;" style="text;strokeColor=none;fillColor=none;align=left;verticalAlign=top;spacingLeft=4;spacingRight=4;overflow=hidden;rotatable=0;points=[[0,0.5],[1,0.5]];portConstraint=eastwest;whiteSpace=wrap;html=1;" vertex="1" parent="LFCNQOA-7yHvIdZD4JI9-67">
          <mxGeometry y="26" width="160" height="54" as="geometry" />
        </mxCell>
        <mxCell id="LFCNQOA-7yHvIdZD4JI9-69" value="" style="line;strokeWidth=1;fillColor=none;align=left;verticalAlign=middle;spacingTop=-1;spacingLeft=3;spacingRight=3;rotatable=0;labelPosition=right;points=[];portConstraint=eastwest;strokeColor=inherit;" vertex="1" parent="LFCNQOA-7yHvIdZD4JI9-67">
          <mxGeometry y="80" width="160" height="8" as="geometry" />
        </mxCell>
        <mxCell id="LFCNQOA-7yHvIdZD4JI9-70" value="+getId(): String&lt;div&gt;+hasVaccinated():boolean&lt;/div&gt;&lt;div&gt;+getDistanceToFarm:Integer&lt;br&gt;&lt;div&gt;+feed(): void&lt;/div&gt;&lt;/div&gt;" style="text;strokeColor=none;fillColor=none;align=left;verticalAlign=top;spacingLeft=4;spacingRight=4;overflow=hidden;rotatable=0;points=[[0,0.5],[1,0.5]];portConstraint=eastwest;whiteSpace=wrap;html=1;" vertex="1" parent="LFCNQOA-7yHvIdZD4JI9-67">
          <mxGeometry y="88" width="160" height="72" as="geometry" />
        </mxCell>
        <mxCell id="LFCNQOA-7yHvIdZD4JI9-77" style="edgeStyle=orthogonalEdgeStyle;rounded=0;orthogonalLoop=1;jettySize=auto;html=1;entryX=0;entryY=0.5;entryDx=0;entryDy=0;endArrow=block;endFill=0;" edge="1" parent="WIyWlLk6GJQsqaUBKTNV-1" source="LFCNQOA-7yHvIdZD4JI9-71" target="LFCNQOA-7yHvIdZD4JI9-70">
          <mxGeometry relative="1" as="geometry" />
        </mxCell>
        <mxCell id="LFCNQOA-7yHvIdZD4JI9-71" value="DairyCattle" style="swimlane;fontStyle=0;childLayout=stackLayout;horizontal=1;startSize=26;fillColor=none;horizontalStack=0;resizeParent=1;resizeParentMax=0;resizeLast=0;collapsible=1;marginBottom=0;whiteSpace=wrap;html=1;" vertex="1" parent="WIyWlLk6GJQsqaUBKTNV-1">
          <mxGeometry x="310" y="1210" width="140" height="52" as="geometry" />
        </mxCell>
        <mxCell id="LFCNQOA-7yHvIdZD4JI9-72" value="+feed(): void" style="text;strokeColor=none;fillColor=none;align=left;verticalAlign=top;spacingLeft=4;spacingRight=4;overflow=hidden;rotatable=0;points=[[0,0.5],[1,0.5]];portConstraint=eastwest;whiteSpace=wrap;html=1;" vertex="1" parent="LFCNQOA-7yHvIdZD4JI9-71">
          <mxGeometry y="26" width="140" height="26" as="geometry" />
        </mxCell>
        <mxCell id="LFCNQOA-7yHvIdZD4JI9-75" value="BeefCattle" style="swimlane;fontStyle=0;childLayout=stackLayout;horizontal=1;startSize=26;fillColor=none;horizontalStack=0;resizeParent=1;resizeParentMax=0;resizeLast=0;collapsible=1;marginBottom=0;whiteSpace=wrap;html=1;" vertex="1" parent="WIyWlLk6GJQsqaUBKTNV-1">
          <mxGeometry x="480" y="1210" width="140" height="52" as="geometry" />
        </mxCell>
        <mxCell id="LFCNQOA-7yHvIdZD4JI9-76" value="+feed(): void" style="text;strokeColor=none;fillColor=none;align=left;verticalAlign=top;spacingLeft=4;spacingRight=4;overflow=hidden;rotatable=0;points=[[0,0.5],[1,0.5]];portConstraint=eastwest;whiteSpace=wrap;html=1;" vertex="1" parent="LFCNQOA-7yHvIdZD4JI9-75">
          <mxGeometry y="26" width="140" height="26" as="geometry" />
        </mxCell>
        <mxCell id="LFCNQOA-7yHvIdZD4JI9-78" style="edgeStyle=orthogonalEdgeStyle;rounded=0;orthogonalLoop=1;jettySize=auto;html=1;entryX=0.982;entryY=0.299;entryDx=0;entryDy=0;entryPerimeter=0;endArrow=block;endFill=0;" edge="1" parent="WIyWlLk6GJQsqaUBKTNV-1" source="LFCNQOA-7yHvIdZD4JI9-75" target="LFCNQOA-7yHvIdZD4JI9-70">
          <mxGeometry relative="1" as="geometry" />
        </mxCell>
        <mxCell id="LFCNQOA-7yHvIdZD4JI9-79" value="CattleFactory" style="swimlane;fontStyle=0;childLayout=stackLayout;horizontal=1;startSize=26;fillColor=none;horizontalStack=0;resizeParent=1;resizeParentMax=0;resizeLast=0;collapsible=1;marginBottom=0;whiteSpace=wrap;html=1;" vertex="1" parent="WIyWlLk6GJQsqaUBKTNV-1">
          <mxGeometry x="370" y="1440" width="190" height="52" as="geometry" />
        </mxCell>
        <mxCell id="LFCNQOA-7yHvIdZD4JI9-80" value="+createCattle(id: String): Cattle" style="text;strokeColor=none;fillColor=none;align=left;verticalAlign=top;spacingLeft=4;spacingRight=4;overflow=hidden;rotatable=0;points=[[0,0.5],[1,0.5]];portConstraint=eastwest;whiteSpace=wrap;html=1;" vertex="1" parent="LFCNQOA-7yHvIdZD4JI9-79">
          <mxGeometry y="26" width="190" height="26" as="geometry" />
        </mxCell>
        <mxCell id="LFCNQOA-7yHvIdZD4JI9-83" value="BeefCattleFactory" style="swimlane;fontStyle=0;childLayout=stackLayout;horizontal=1;startSize=26;fillColor=none;horizontalStack=0;resizeParent=1;resizeParentMax=0;resizeLast=0;collapsible=1;marginBottom=0;whiteSpace=wrap;html=1;" vertex="1" parent="WIyWlLk6GJQsqaUBKTNV-1">
          <mxGeometry x="630" y="1311" width="190" height="52" as="geometry" />
        </mxCell>
        <mxCell id="LFCNQOA-7yHvIdZD4JI9-84" value="+createCattle(id: String): Cattle" style="text;strokeColor=none;fillColor=none;align=left;verticalAlign=top;spacingLeft=4;spacingRight=4;overflow=hidden;rotatable=0;points=[[0,0.5],[1,0.5]];portConstraint=eastwest;whiteSpace=wrap;html=1;" vertex="1" parent="LFCNQOA-7yHvIdZD4JI9-83">
          <mxGeometry y="26" width="190" height="26" as="geometry" />
        </mxCell>
        <mxCell id="LFCNQOA-7yHvIdZD4JI9-85" value="DairyCattleFactory" style="swimlane;fontStyle=0;childLayout=stackLayout;horizontal=1;startSize=26;fillColor=none;horizontalStack=0;resizeParent=1;resizeParentMax=0;resizeLast=0;collapsible=1;marginBottom=0;whiteSpace=wrap;html=1;" vertex="1" parent="WIyWlLk6GJQsqaUBKTNV-1">
          <mxGeometry x="150" y="1298" width="190" height="52" as="geometry" />
        </mxCell>
        <mxCell id="LFCNQOA-7yHvIdZD4JI9-86" value="+createCattle(id: String): Cattle" style="text;strokeColor=none;fillColor=none;align=left;verticalAlign=top;spacingLeft=4;spacingRight=4;overflow=hidden;rotatable=0;points=[[0,0.5],[1,0.5]];portConstraint=eastwest;whiteSpace=wrap;html=1;" vertex="1" parent="LFCNQOA-7yHvIdZD4JI9-85">
          <mxGeometry y="26" width="190" height="26" as="geometry" />
        </mxCell>
        <mxCell id="LFCNQOA-7yHvIdZD4JI9-87" style="edgeStyle=orthogonalEdgeStyle;rounded=0;orthogonalLoop=1;jettySize=auto;html=1;entryX=0.196;entryY=-0.01;entryDx=0;entryDy=0;entryPerimeter=0;endArrow=block;endFill=0;" edge="1" parent="WIyWlLk6GJQsqaUBKTNV-1" source="LFCNQOA-7yHvIdZD4JI9-85" target="LFCNQOA-7yHvIdZD4JI9-79">
          <mxGeometry relative="1" as="geometry" />
        </mxCell>
        <mxCell id="LFCNQOA-7yHvIdZD4JI9-88" style="edgeStyle=orthogonalEdgeStyle;rounded=0;orthogonalLoop=1;jettySize=auto;html=1;endArrow=block;endFill=0;" edge="1" parent="WIyWlLk6GJQsqaUBKTNV-1" source="LFCNQOA-7yHvIdZD4JI9-83">
          <mxGeometry relative="1" as="geometry">
            <mxPoint x="530" y="1430" as="targetPoint" />
          </mxGeometry>
        </mxCell>
        <mxCell id="LFCNQOA-7yHvIdZD4JI9-90" style="edgeStyle=orthogonalEdgeStyle;rounded=0;orthogonalLoop=1;jettySize=auto;html=1;entryX=0.021;entryY=0.071;entryDx=0;entryDy=0;entryPerimeter=0;endArrow=open;endFill=0;" edge="1" parent="WIyWlLk6GJQsqaUBKTNV-1" source="LFCNQOA-7yHvIdZD4JI9-85" target="LFCNQOA-7yHvIdZD4JI9-72">
          <mxGeometry relative="1" as="geometry" />
        </mxCell>
        <mxCell id="LFCNQOA-7yHvIdZD4JI9-93" style="edgeStyle=orthogonalEdgeStyle;rounded=0;orthogonalLoop=1;jettySize=auto;html=1;entryX=1;entryY=0.154;entryDx=0;entryDy=0;entryPerimeter=0;endArrow=open;endFill=0;" edge="1" parent="WIyWlLk6GJQsqaUBKTNV-1" source="LFCNQOA-7yHvIdZD4JI9-83" target="LFCNQOA-7yHvIdZD4JI9-76">
          <mxGeometry relative="1" as="geometry" />
        </mxCell>
        <mxCell id="LFCNQOA-7yHvIdZD4JI9-94" style="edgeStyle=orthogonalEdgeStyle;rounded=0;orthogonalLoop=1;jettySize=auto;html=1;entryX=0.2;entryY=1;entryDx=0;entryDy=0;entryPerimeter=0;endArrow=open;endFill=0;" edge="1" parent="WIyWlLk6GJQsqaUBKTNV-1" source="LFCNQOA-7yHvIdZD4JI9-67" target="LFCNQOA-7yHvIdZD4JI9-44">
          <mxGeometry relative="1" as="geometry" />
        </mxCell>
        <mxCell id="LFCNQOA-7yHvIdZD4JI9-95" style="edgeStyle=orthogonalEdgeStyle;rounded=0;orthogonalLoop=1;jettySize=auto;html=1;entryX=0.821;entryY=1.118;entryDx=0;entryDy=0;entryPerimeter=0;endArrow=open;endFill=0;" edge="1" parent="WIyWlLk6GJQsqaUBKTNV-1" source="LFCNQOA-7yHvIdZD4JI9-67" target="LFCNQOA-7yHvIdZD4JI9-39">
          <mxGeometry relative="1" as="geometry">
            <Array as="points">
              <mxPoint x="390" y="934" />
            </Array>
          </mxGeometry>
        </mxCell>
      </root>
    </mxGraphModel>
  </diagram>
</mxfile>
